<?xml version="1.0" encoding="UTF-8" standalone="no"?>
<!-- Created with Inkscape (http://www.inkscape.org/) -->

<svg
   width="221"
   height="221"
   viewBox="0 0 58.472918 58.472916"
   version="1.1"
   id="svg5"
   xmlns="http://www.w3.org/2000/svg"
   xmlns:svg="http://www.w3.org/2000/svg">
  <defs
     id="defs2" />
  <g
     id="layer1"
     transform="translate(-74.280809,-50.76446)">
    <path
       style="fill:#a05a2c;stroke:#000000;stroke-width:0.113896"
       d="M 74.337758,89.209422 V 76.140173 l 2.125254,-1.666521 c 5.813575,-4.558722 9.189012,-7.207842 11.434282,-8.973874 1.358334,-1.068412 3.700907,-2.908736 5.205715,-4.08961 5.242544,-4.114011 7.578671,-5.950782 10.036731,-7.891331 1.3608,-1.074306 2.68828,-2.100927 2.94998,-2.281381 l 0.47581,-0.328098 -10e-4,17.621478 -0.001,17.621476 -3.36644,1.686965 c -1.85153,0.927831 -3.520985,1.760214 -3.709883,1.84974 -0.379986,0.180091 -24.40752,12.202483 -24.863195,12.440523 l -0.28548,0.14913 z"
       id="path605" />
    <path
       style="fill:#a05a2c;stroke:#000000;stroke-width:0.113896"
       d="m 119.66932,92.199275 -12.97022,-5.944723 -0.004,-17.619406 c -0.002,-9.690673 0.0423,-17.60407 0.0981,-17.585326 0.0558,0.01876 5.90535,4.197816 12.99891,9.286825 l 12.89741,9.252743 0.006,14.288077 c 0.004,7.858444 -0.007,14.283235 -0.0253,14.277313 -0.0175,-0.0056 -5.86832,-2.685899 -13.00195,-5.955503 z"
       id="path607" />
    <path
       style="fill:#a05a2c;stroke:#000000;stroke-width:0.113896"
       d="m 87.109945,105.78485 c -6.82752,-1.87617 -12.43853,-3.43123 -12.468901,-3.45571 -0.03037,-0.0245 3.072089,-1.60851 6.894358,-3.520105 3.822269,-1.911583 11.009581,-5.507196 15.971801,-7.990253 l 9.022207,-4.514643 13.00811,5.956261 c 7.15446,3.275945 12.9436,5.985831 12.86475,6.021969 -0.28465,0.130468 -32.695659,10.924981 -32.78599,10.919411 -0.05097,-0.003 -5.678809,-1.54077 -12.506335,-3.41693 z"
       id="path609" />
  </g>
</svg>
